<svg  viewBox="0 0 445.7 35.73">
            <path class="cls-1" d="M186.84 7.7l-16.4 28h-14.27l16.4-28H157l-16.4 28h-17.17l-2.29-22.15-13 22.15H93.93L114.84.01h17.32l2.27 21.86L147.24 0h56.33l-4.51 7.69zm145.91 20.31c-2.47 4.23-1.08 7.65 3.11 7.7h26.33c4.25 0 9.71-3.45 12.2-7.7l11.9-20.31h24.14l-32.71 28h40.71l4.51-7.7h-18.18l30.59-28h-58.84l-16.4 28h-13.09l16.4-28h-14.27zm-239-28H80.43l-40.71 35.7h54zm-14.06 28H62.8l17.29-15.16zm153.07-28h-13.33l-40.72 35.7h54zm-14.07 28H201.8l17.29-15.16zm-205.95-14c-2.47 4.22-1.08 7.66 3.11 7.7h16.94l-3.69 6.3H4.51L0 35.71h31.14c4.25 0 9.71-3.45 12.21-7.7l3.7-6.3c2.5-4.25 1.07-7.7-3.19-7.7H26.99l3.69-6.31h24.57L59.76.01H28.61c-4.25 0-9.72 3.45-12.21 7.69zm248.86 14L273.43 7.7h20.35l4.51-7.69h-26.86c-4.25 0-9.71 3.45-12.2 7.69l-11.9 20.31c-2.47 4.22-1.08 7.65 3.11 7.7h27l4.52-7.72zm42.81-28L283.43 35.7h14.3l6.9-11.77h2.86l4.88 11.77h15l-5.94-11.77c4.25 0 9.72-3.45 12.21-7.7l5-8.53c2.49-4.25 1.07-7.7-3.19-7.7h-31.07zm15.02 16.22h-10.3l5-8.53h10.3zM439.87.57h-1.55v3.28h-.89V.57h-1.55V0h4zm.72-.57h1.32l1 2.32c.14.32.21.54.21.54s.07-.22.2-.55l1-2.31h1.31v3.85h-.89V.73a7 7 0 01-.28.74l-1 2.38h-.71l-1-2.38a7.07 7.07 0 01-.28-.74v3.12h-.83z"></path>
          </svg>