<svg viewBox="0 0 807.5 120" >
            <path d="M181.9 6.44v64.12c0 9.63-1.85 14.19-3.42 16.31-3.35 4.61-8 6.84-14.24 6.84s-10.87-2.23-14.19-6.78c-2.27-3.23-3.41-8.73-3.41-16.37V6.44h-23.4v68.25c0 11.54 3.71 21.26 11 28.81a42 42 0 0059.39.69l.08-.08c.2-.2.41-.4.6-.61 7.28-7.55 11-17.27 11-28.81V6.44zm15 68.25c0 9.46-2.81 17-8.6 23a33.75 33.75 0 01-47.71.36c-.12-.11-.23-.22-.34-.34-5.79-6-8.63-13.55-8.63-23V14.84h6.67V70.6c0 9.54 1.6 16.46 5 21.22 5 6.83 12 10.3 21 10.3s16-3.47 21-10.3c3.35-4.58 5-11.53 5-21.22V14.84h6.66zM281.05 91.82V6.44h-23.4v107.88h59v-22.5zM308.22 106H266V14.84h6.67v85.41h35.54zM363 6.44v107.88h23.37V6.44zM378 106h-6.63V14.84H378zM639.34 6.28v62.16L566.79 0v114.38h23.37V51.77L662.71 120V6.28zm15 95L581.78 33v73.82h-6.66v-88l72.55 68.44V13.84h6.66zM478.85 18.48l41.3 87.77h-7.87l-10.5-22.13h-47.33l-11 22.13h-7.62l43-87.77M479 0l-56 114.25h25.5l11-22.13h37.12l10.5 22.13h25.63L479 0z"></path>
            <path class="cls-2" d="M478.21 50.78l8.68 18.29h-17.78l9.1-18.29m.17-16.61l-20.63 42.9h40.75z"></path>
            <path d="M50.54 6.44v64.12c0 9.63-1.85 14.19-3.39 16.31a15.85 15.85 0 01-5.27 4.7 15.17 15.17 0 01-5.14 1.81 8.59 8.59 0 01-1.6.24 15.07 15.07 0 01-3 .25c-7.63 0-14-4.32-18-10.21L0 100.15a32.72 32.72 0 002.87 3.35c.6.64 1.24 1.24 1.84 1.81A42.1 42.1 0 0063 103.5c7.27-7.5 11-17.27 11-28.81V6.44zm15 68.25c0 9.46-2.8 17-8.6 23a32 32 0 01-24.07 10.06A31.63 31.63 0 0110.16 99l3.93-4.53c5.33 5.15 11.44 7.41 19.13 7.41 9 0 15.7-3.24 20.66-10.07 3.35-4.58 5-11.53 5-21.22V14.84h6.64zM753.6 18.48l41.3 87.77H787l-10.5-22.13h-47.3l-11 22.13h-7.62l43-87.77M753.75 0l-56 114.25h25.5l11-22.13h37.13l10.5 22.13h25.62L753.75 0z"></path>
            <path class="cls-2" d="M753 50.78l8.68 18.29h-17.82L753 50.78m.16-16.61l-20.66 42.9h40.75z"></path>
          </svg>